<?xml version="1.0" encoding="utf-8"?>
<!-- Generator: Adobe Illustrator 28.2.0, SVG Export Plug-In . SVG Version: 6.00 Build 0)  -->
<svg version="1.1" id="图层_1" xmlns="http://www.w3.org/2000/svg" xmlns:xlink="http://www.w3.org/1999/xlink" x="0px" y="0px"
	 viewBox="0 0 125 52" style="enable-background:new 0 0 125 52;" xml:space="preserve">
<style type="text/css">
	.st0{fill:#FF5F00;}
</style>
<g>
	<path class="st0" d="M23.7,27.5c1.6-2.6,4.2-4.9,6.7-6.7H18.6c1.1-8.8,6.3-9.5,13.1-9.4c1.4,0,2.8,0.1,4.2,0.1l1.4-9.7h-0.1
		c-1.8,0-3.6-0.1-5.5-0.1C20.8,1.6,10.5,2.8,7.5,16.5c-2,9.2-5.1,24.4-6.8,34.6h14L18,30.9c0-0.1,0-0.3,0.1-0.3h4
		c0.3-0.7,0.6-1.3,1-2c0.1-0.2,0.2-0.4,0.3-0.6C23.5,27.9,23.6,27.7,23.7,27.5z"/>
	<path class="st0" d="M41.2,20.8c-8.4,0-16.2,6.8-17.3,15.3c-1.1,8.4,4.8,15.3,13.2,15.3c8.4,0,16.2-6.8,17.3-15.3
		C55.6,27.7,49.6,20.8,41.2,20.8z M46.1,36.1c-0.5,3.8-4,6.9-7.9,6.9s-6.5-3.1-6-6.9c0.5-3.8,4-6.9,7.9-6.9S46.6,32.3,46.1,36.1z"/>
	<g>
		<polygon class="st0" points="102.2,17.9 103,10.3 96.9,10.3 92.2,10.3 90.9,17.9 96.9,17.9 		"/>
		<path class="st0" d="M85.9,51.4h11h1.9l2.2-21.1h3.7l-0.9,8.6c-0.8,8,4.6,12.7,12,12.4l5.3-0.2l1-8.8h-3.3c-2.2,0-4.2-0.7-3.9-4
			l0.8-8.1h7.5l1.1-9.3h-7.9l0.8-7.2h-10.6l-0.8,7.2H102h-0.1h-5h-6.4l-4.6,30.3"/>
	</g>
	<g>
		<g>
			<path class="st0" d="M70,46.7c-0.5,0.1-0.9,0.2-1.3,0.4l2.5,4.4H83L78.2,43c-2,1.3-4.6,2.5-8.1,3.7L70,46.7z"/>
			<path class="st0" d="M67.8,24.4l-2-3.5H53.9l5.4,9.5C61.5,28,64.4,26,67.8,24.4z"/>
		</g>
		<path class="st0" d="M54.3,50.1c0,0,0.4-7.9,3.8-13.5c2.9-6,10.4-11,19-12.4c0,0,7.2-1.7,9.5-3c0,0,2.4-1.6,1.3,2.1
			c0,0-1.5,3.6-6,5.9c-1.1,0.5-1.8,0.7-1.7,1.7c0.3,1,2,0.2,2.3,0.1c0.4-0.3,4.4-1.4,1.7,2.4c-2.7,3.9-4.3,7.5-14.7,11.1
			c-6.9,1.9-9.7,3-13.7,6.6C54,52.4,54.3,50.1,54.3,50.1z"/>
	</g>
</g>
</svg>
